HIERARCHY
ROOT pelvis
{
  OFFSET 0 100 0
  CHANNELS 6 Xposition Yposition Zposition Zrotation Xrotation Yrotation
  JOINT pelvis_right_femur
  {
    OFFSET -10.78128 -3.44521 -0.5502486
    CHANNELS 3 Zrotation Xrotation Yrotation
    JOINT right_femur_tibia
    {
      OFFSET -0.8047443 -44.0398 -0.1307829
      CHANNELS 3 Zrotation Xrotation Yrotation
      JOINT right_tibia_foot
      {
        OFFSET 3.006224 -47.83518 -5
        CHANNELS 3 Zrotation Xrotation Yrotation
        End Site
        {
          OFFSET 0 -5 15
        }
      }
    }
  }
  JOINT pelvis_left_femur
  {
    OFFSET 10.78128 -3.44521 -0.5502486
    CHANNELS 3 Zrotation Xrotation Yrotation
    JOINT left_femur_tibia
    {
      OFFSET 0.8047443 -44.0398 -0.1307829
      CHANNELS 3 Zrotation Xrotation Yrotation
      JOINT left_tibia_foot
      {
        OFFSET -4.370144 -48.10324 -4.275266
        CHANNELS 3 Zrotation Xrotation Yrotation
        End Site
        {
          OFFSET 0 -5 15
        }
      }
    }
  }
  JOINT pelvis_spine1
  {
    OFFSET 0 6.468898 -3.129235
    CHANNELS 3 Zrotation Xrotation Yrotation
    JOINT spine1
    {
      OFFSET 0 23.15396 4.99043
      CHANNELS 3 Zrotation Xrotation Yrotation
      JOINT spine2
      {
        OFFSET 0 20.79997 -5.064912
        CHANNELS 3 Zrotation Xrotation Yrotation
        JOINT neck
        {
          OFFSET 0 14.38658 9.616178
          CHANNELS 3 Zrotation Xrotation Yrotation
          End Site
          {
            OFFSET 0 20 0
          }
        }
      }
      JOINT right_manubrium
      {
        OFFSET -5.722621 16.35077 3.967754
        CHANNELS 3 Zrotation Xrotation Yrotation
        JOINT right_clavicle
        {
          OFFSET -13.16364 1.694482 -4.693211
          CHANNELS 3 Zrotation Xrotation Yrotation
          JOINT right_humerus
          {
            OFFSET -28.5034 -0.3100689 -2.792744
            CHANNELS 3 Zrotation Xrotation Yrotation
            JOINT right_radius
            {
              OFFSET -25.15693 0.02248979 -1.271978
              CHANNELS 3 Zrotation Xrotation Yrotation
              End Site
              {
                OFFSET -15 0 0
              }
            }
          }
        }
      }
      JOINT left_manubrium
      {
        OFFSET 5.722621 16.35077 3.967754
        CHANNELS 3 Zrotation Xrotation Yrotation
        JOINT left_clavicle
        {
          OFFSET 13.16364 1.694482 -4.693211
          CHANNELS 3 Zrotation Xrotation Yrotation
          JOINT left_humerus
          {
            OFFSET 29.39168 -1.063119 -2.237045
            CHANNELS 3 Zrotation Xrotation Yrotation
            JOINT left_radius
            {
              OFFSET 24.59957 -0.9528479 0.9047498
              CHANNELS 3 Zrotation Xrotation Yrotation
              End Site
              {
                OFFSET 15 -0 -0
              }
            }
          }
        }
      }
    }
  }
}
MOTION
Frames: 23
Frame Time: 0.0416666666667
1675.387 106.1067 2539.552 7.020337 -2.595788 61.62029 0.4522575 -15.89801 2.249506 -0 42.37903 -0 -0.5472369 -0.3846254 -8.353539 -5.144794 7.510389 -7.560928 -0 13.57202 -0 -2.50712 -16.91877 14.7282 -2.890413 1.017938 2.728033 0.7217151 10.48593 -7.526728 1.408897 22.58116 6.148775 1.596569 -17.21795 7.718298 2.136354 -16.52601 10.50145 89.00779 25.81556 -17.30013 -0 0 12.20082 -22.55878 11.76652 12.53179 4.153139 -19.97919 -5.275443 -83.42438 23.7815 10.18963 0 0 -20.26286 0.5446358 6.246713 13.50926
1680.237 105.3027 2541.917 6.481308 -2.103584 62.40942 0.03716275 -20.717 1.164827 -0 32.01516 -0 -1.291251 -2.150863 -8.632236 -5.155691 11.45169 -7.656558 -0 11.91632 -0 -2.626554 -18.62818 13.77547 -3.009588 0.963439 2.270368 1.269542 10.09248 -8.249759 1.394006 22.54811 6.188117 1.764046 -17.08344 7.603991 1.899741 -15.73816 10.30635 89.70508 26.01429 -19.45572 -0 0 10.68755 -22.26814 11.95055 12.15598 4.886252 -21.15284 -5.519434 -81.84093 23.601 7.00583 0 0 -23.51662 0.75093 6.696638 12.67428
1685.255 103.9801 2544.472 5.808748 -1.345748 63.01348 -0.430633 -24.32509 0.3914576 -0 21.4909 -0 -1.425698 -3.167797 -8.925102 -5.299095 14.55204 -7.817875 -0 11.98228 -0 -3.099264 -20.16206 13.03814 -3.25445 0.6873745 2.233643 1.587215 9.609712 -8.654526 1.561159 22.33765 6.182099 2.029822 -16.94496 7.581725 1.814406 -14.86624 10.0866 90.29719 26.52705 -21.43884 -0 0 9.439715 -22.04854 12.62548 11.56611 5.785751 -22.13767 -5.470104 -80.66412 23.34371 4.428411 0 0 -26.43508 1.02562 7.263816 11.90081
1690.61 102.415 2547.321 5.241835 -0.6877537 63.5577 -0.5010918 -26.5157 0.2412959 -0 13.71685 -0 -1.055597 -3.109238 -9.307325 -5.396424 16.85308 -7.940715 -0 13.97009 -0 -3.9371 -20.99321 12.59697 -3.397946 0.3478916 2.343909 1.612356 9.134867 -8.660966 1.910663 22.09668 6.068029 2.204564 -16.77375 7.731093 1.80952 -13.89959 9.882827 90.93697 27.05776 -22.9025 -0 0 8.275427 -21.68659 13.62613 10.70296 6.623668 -22.74653 -5.176086 -79.87396 22.98902 2.480545 0 0 -28.51681 1.665007 7.912075 10.98845
1696.361 100.9459 2550.525 5.011121 -0.540239 64.11786 0.140985 -27.13581 0.7840745 -0 10.55607 -0 -0.5032152 -2.679494 -9.778736 -5.1766 18.62712 -8.015221 -0 17.65575 -0 -5.116064 -20.511 12.37079 -3.200935 0.07937177 2.239556 1.447014 8.705309 -8.35209 2.340303 22.04714 5.809723 2.119049 -16.51818 8.018106 1.821222 -12.85672 9.717209 91.51808 27.22108 -23.57869 -0 0 7.050472 -21.0264 14.57403 9.636963 7.076205 -22.79393 -4.801455 -79.41892 22.66799 1.061591 0 0 -29.32614 2.608548 8.610339 9.914506
1702.436 99.91301 2554.06 5.058658 -1.004864 64.61616 1.484289 -26.12639 1.852794 -0 11.56209 -0 -0.1852026 -2.843485 -10.15538 -4.537512 19.83262 -8.106447 -0 22.98558 -0 -6.500165 -18.40756 12.24203 -2.592572 -0.1103328 1.856022 1.33673 8.387079 -7.982368 2.653548 22.22418 5.46268 1.843321 -16.30554 8.214015 1.954434 -11.93469 9.641067 91.72315 26.95559 -23.54934 -0 0 5.927828 -20.00956 14.98186 8.595757 6.924542 -22.28797 -4.498861 -79.42752 22.6688 0.413056 0 0 -28.69396 3.326664 9.138775 9.130293
1708.678 99.58484 2557.794 5.06954 -1.806573 64.85592 3.201423 -23.63752 3.162567 -0 14.56141 -0 -0.3775359 -3.803671 -10.15029 -3.701695 19.80161 -8.190504 -0 30.25517 -0 -7.8051 -14.93814 12.1929 -1.715949 -0.2650792 1.542913 1.477469 8.336207 -7.791585 2.674322 22.42044 5.185996 1.644544 -16.42554 8.082686 2.39177 -11.4818 9.759146 91.37087 26.67857 -23.18365 -0 0 5.26718 -18.795 14.65087 7.912338 6.211509 -21.5049 -4.297531 -80.11776 23.10489 1.090996 0 0 -26.96261 3.333281 9.164511 9.212554
1714.907 100.0438 2561.535 4.960401 -2.572913 64.67273 4.755348 -19.95415 4.393834 -0 17.34503 -0 -0.9964779 -5.101986 -9.641103 -3.064771 17.72976 -8.125071 -0 39.46132 -0 -8.737304 -10.90566 12.34579 -0.8570016 -0.3377594 1.759104 1.80899 8.678088 -7.768727 2.425799 22.47951 5.102626 1.694848 -16.92521 7.656173 3.079583 -11.71283 10.12729 90.63308 26.81206 -22.75487 -0 0 5.290258 -17.79108 13.915 7.764009 5.216251 -20.80952 -4.156438 -81.48502 23.72798 3.263626 0 0 -24.91666 2.686129 8.61372 10.22179
1720.969 101.1167 2565.125 5.172495 -3.084972 64.05855 5.608335 -15.34796 5.303551 -0 18.71363 -0 -1.622075 -6.229219 -8.816559 -2.854201 13.38205 -7.79137 -0 49.40387 -0 -9.182452 -7.49586 12.93154 -0.3472133 -0.1822174 2.706239 2.022362 9.368981 -7.621107 2.181694 22.50157 5.117878 1.940083 -17.34945 7.177188 3.672078 -12.52328 10.64586 89.79836 27.17252 -22.13697 -0 0 6.039757 -17.44576 13.28906 7.972536 4.320699 -20.40104 -4.085556 -83.19828 24.21181 6.267688 0 0 -23.21151 1.795512 7.808435 11.65606
1726.766 102.4462 2568.491 6.088555 -3.324668 63.15865 5.600409 -10.07826 5.861676 -0 18.54663 -0 -1.721681 -6.913936 -7.956942 -2.894175 7.226779 -7.16601 -0 57.43454 -0 -9.227792 -5.689586 14.09331 -0.341539 0.246336 4.201969 1.841097 10.20961 -7.056818 2.192491 22.61071 5.049027 2.233434 -17.2177 6.823445 3.892623 -13.68685 11.14261 88.82866 27.13829 -20.8973 -0 0 7.645295 -18.04275 13.06465 8.340536 3.831623 -20.18043 -4.104519 -84.94345 24.39506 9.288951 0 0 -21.85682 0.8945083 7.095836 13.0021
1732.303 103.6525 2571.633 7.267959 -3.371937 62.16247 5.132778 -4.583159 6.224098 -0 17.32127 -0 -1.012203 -7.246719 -7.083913 -2.729202 0.03997234 -6.249271 -0 60.78534 -0 -8.974764 -5.4602 15.60916 -0.5969445 0.7289325 5.854279 1.304714 10.99824 -6.140808 2.369602 22.63974 4.951364 2.466791 -16.74466 6.646936 3.753109 -15.17955 11.55978 87.47999 26.42434 -18.84694 -0 0 10.34463 -19.60139 13.30098 9.026377 3.805342 -19.91989 -4.129567 -86.722 24.13811 12.33042 0 0 -20.58466 -0.00919448 6.454593 14.09963
1737.688 104.453 2574.579 7.862865 -3.319715 61.19336 4.768633 0.4780944 6.500872 -0 15.66912 -0 0.2370384 -7.774701 -6.043724 -2.007818 -7.280378 -5.072208 -0 58.53208 -0 -8.47331 -5.958838 17.01304 -0.7166842 1.032486 7.261662 0.6868718 11.56008 -5.213118 2.447003 22.38288 5.034934 2.572427 -16.5435 6.683285 3.391685 -16.97246 11.91481 85.74742 25.44451 -16.2554 -0 0 13.94457 -21.70988 13.88401 10.16219 4.047592 -19.49535 -4.032608 -88.52014 23.42218 15.63992 0 0 -19.36245 -0.7515203 5.798971 14.85515
1743.057 104.691 2577.382 7.661947 -3.30078 60.31106 4.711112 4.775118 6.659382 -0 14.33974 -0 1.516416 -9.180977 -4.890618 -0.7501838 -13.81898 -3.783935 -0 51.87773 -0 -7.880922 -6.461281 18.0615 -0.5584054 1.183412 8.153766 0.1764879 11.71294 -4.468419 2.363081 21.979 5.280466 2.488723 -16.72487 6.919782 2.872774 -18.76199 12.1435 83.87347 24.62944 -13.38689 -0 0 17.72689 -23.66209 14.45983 11.46765 4.300157 -18.82565 -3.799587 -90.12956 22.62513 18.86315 0 0 -18.07462 -1.172314 5.27511 15.23103
1748.514 104.357 2580.098 7.075449 -3.390386 59.53453 4.738156 8.451729 6.628474 -0 13.96002 -0 2.564476 -11.48469 -3.834955 0.6694925 -19.00331 -2.667124 -0 43.0798 -0 -7.438891 -6.723962 18.75086 -0.2543554 1.294735 8.549088 -0.2173648 11.42337 -3.875824 2.243445 21.68458 5.4898 2.238854 -16.95995 7.233225 2.243178 -20.24373 12.16061 82.16361 23.98248 -10.45502 -0 0 21.04304 -25.02417 14.64723 12.5914 4.402417 -17.88666 -3.536484 -91.41987 22.20802 21.56206 0 0 -16.51822 -1.434895 4.978406 15.52908
1754.154 103.5947 2582.774 6.548987 -3.498286 58.84839 4.474957 11.69387 6.397565 -0 14.86253 -0 3.412874 -13.82764 -3.011064 1.705983 -22.63152 -2.063469 -0 34.48553 -0 -7.256129 -6.827528 19.09859 -0.04929923 1.353738 8.687405 -0.5573701 10.85507 -3.356728 2.206231 21.58325 5.561357 1.958767 -17.00531 7.499512 1.643782 -21.27567 11.96586 80.83128 23.43227 -7.805687 -0 0 23.56568 -25.89771 14.41097 13.43667 4.329963 -16.781 -3.340409 -92.38681 22.28219 23.63075 0 0 -14.71835 -1.802834 4.876584 16.07932
1760.068 102.6568 2585.44 6.314736 -3.44943 58.25187 3.676075 14.49335 6.050376 -0 17.29794 -0 4.202926 -15.08947 -2.465615 1.898789 -24.67393 -2.217698 -0 27.87586 -0 -7.234078 -6.965169 19.11124 -0.1601738 1.253296 8.804696 -0.8905312 10.23494 -2.885308 2.284104 21.61007 5.544028 1.791369 -16.85571 7.688026 1.264524 -21.80931 11.64201 79.9414 23.07466 -5.810346 -0 0 25.16768 -26.63018 14.05864 14.07977 4.136104 -15.67595 -3.231692 -93.04129 22.64524 25.14094 0 0 -12.91079 -2.367318 4.935058 16.90642
1766.305 101.8347 2588.107 6.402386 -3.138251 57.79815 2.379358 16.60089 5.708796 -0 21.49605 -0 4.993104 -14.56592 -2.247074 1.111748 -25.15619 -3.113855 -0 24.06662 -0 -7.17592 -7.298399 18.84507 -0.6691462 0.923305 8.975194 -1.218704 9.741383 -2.507416 2.42612 21.67524 5.541881 1.795781 -16.63987 7.825758 1.243982 -21.84854 11.30426 79.47606 23.106 -4.706701 -0 0 25.80457 -27.42097 13.93673 14.58447 3.889439 -14.74912 -3.180249 -93.36282 23.03894 26.13147 0 0 -11.37704 -3.011056 5.154734 17.7688
1772.824 101.3788 2590.765 6.715866 -2.625263 57.58114 0.9000613 17.5995 5.459019 -0 27.45257 -0 5.694645 -12.30218 -2.435878 -0.3877828 -24.15505 -4.453779 -0 22.78726 -0 -6.937417 -7.891837 18.44056 -1.468021 0.4200073 9.099031 -1.508513 9.465576 -2.307097 2.548209 21.7323 5.61492 1.926748 -16.47839 7.939873 1.581486 -21.47066 11.03757 79.43765 23.60746 -4.527389 -0 0 25.53871 -28.16237 14.15093 14.92713 3.646927 -14.14498 -3.15558 -93.33539 23.32674 26.56025 0 0 -10.28975 -3.524583 5.513213 18.38899
1779.493 101.4319 2593.392 7.098218 -2.092743 57.68814 -0.3383796 17.08966 5.307377 -0 34.6517 -0 6.128382 -8.954463 -3.054775 -2.098796 -21.85701 -5.820397 -0 23.00117 -0 -6.487253 -8.70834 18.05759 -2.31803 -0.09054841 9.01123 -1.70934 9.421359 -2.357769 2.586864 21.77507 5.750979 2.083039 -16.43259 8.035371 2.131736 -20.83004 10.86778 79.86834 24.44951 -5.136684 -0 0 24.5585 -28.55823 14.52169 15.03924 3.445844 -13.94433 -3.152908 -92.97217 23.50822 26.36777 0 0 -9.701234 -3.724407 5.913992 18.61692
1786.138 102.0001 2595.956 7.415749 -1.719935 58.16118 -1.037463 14.90258 5.203103 -0 42.11301 -0 6.132979 -5.347967 -4.004709 -3.58241 -18.54684 -6.896632 -0 23.53973 -0 -5.869397 -9.664097 17.77756 -2.992153 -0.4319928 8.604008 -1.773691 9.572581 -2.684428 2.52511 21.81653 5.894871 2.172111 -16.51235 8.101697 2.682001 -20.10127 10.77662 80.79409 25.35003 -6.329357 -0 0 23.1042 -28.3622 14.74719 14.87941 3.302628 -14.15213 -3.194904 -92.29722 23.64045 25.52998 0 0 -9.619986 -3.524656 6.214618 18.44594
1792.598 102.969 2598.424 7.610228 -1.593457 58.98283 -1.140411 11.16354 5.081097 -0 48.69591 -0 5.63197 -2.125982 -5.099926 -4.623387 -14.53018 -7.556819 -0 23.57524 -0 -5.14489 -10.69449 17.56905 -3.375509 -0.5067314 7.866838 -1.671635 9.857593 -3.261847 2.379194 21.8759 5.999606 2.151065 -16.69538 8.126431 3.058463 -19.40814 10.73605 82.15612 26.03859 -7.910411 -0 0 21.3669 -27.5494 14.61306 14.48706 3.220012 -14.71968 -3.320404 -91.31949 23.7616 24.05766 0 0 -10.07556 -2.950442 6.31833 17.94141
1798.761 104.1415 2600.768 7.690334 -1.699685 60.08147 -0.7880102 6.197008 4.874841 -0 53.36263 -0 4.65028 0.3053693 -6.150388 -5.202954 -10.06221 -7.829413 -0 22.71703 -0 -4.376982 -11.78319 17.32701 -3.468712 -0.3149629 6.857878 -1.395724 10.19884 -4.035345 2.175677 21.97346 6.053929 2.029228 -16.93181 8.104848 3.182482 -18.79283 10.72353 83.79762 26.37649 -9.724228 -0 0 19.45924 -26.31685 14.09316 13.97554 3.200552 -15.57434 -3.56687 -90.03688 23.87001 21.97479 0 0 -11.11854 -2.115366 6.234898 17.18384
1804.567 105.2747 2602.977 7.68704 -1.954099 61.34484 -0.2189735 0.4121638 4.50944 -0 55.25807 -0 3.302724 1.682304 -7.023536 -5.406919 -5.331791 -7.826604 -0 20.90734 -0 -3.641611 -12.95506 16.93265 -3.345509 0.06871129 5.673222 -0.9585752 10.50553 -4.940613 1.941433 22.1224 6.075421 1.849974 -17.1503 8.040679 3.062164 -18.23123 10.71675 85.50547 26.37063 -11.66241 -0 0 17.45301 -24.96615 13.32383 13.47311 3.25936 -16.63673 -3.949544 -88.46308 23.94067 19.31818 0 0 -12.79017 -1.185344 6.067928 16.25216
